<svg width="201" height="44" viewBox="0 0 201 44" fill="none" xmlns="http://www.w3.org/2000/svg">
<path d="M129.448 15.2569C128.865 14.5868 128.187 14.083 127.409 13.7528C126.633 13.4226 125.801 13.2587 124.909 13.2587C124.328 13.2587 123.8 13.3406 123.326 13.4877C122.848 13.6443 122.419 13.8468 122.036 14.0951C121.655 14.3409 121.327 14.6229 121.062 14.9459C120.785 15.2665 120.559 15.5895 120.378 15.9221C120.354 15.7799 120.327 15.5895 120.301 15.3798C120.291 15.3147 120.279 15.252 120.265 15.1894C119.621 13.249 116.275 14.3 116.275 14.3V26.0432C115.986 26.1058 115.343 26.248 115.169 26.2673C114.969 26.2914 114.781 26.2987 114.624 26.2987C114.248 26.2987 113.937 26.2577 113.689 26.1709C113.446 26.0914 113.241 25.9443 113.087 25.7274C112.93 25.5105 112.817 25.2044 112.742 24.8115C112.665 24.421 112.633 23.9028 112.633 23.264V8.91765C112.597 7.75104 111.635 6.81824 110.459 6.81824H110.454C109.726 6.81824 108.996 6.87609 108.251 6.99902V24.2233C108.251 24.8958 108.312 25.5056 108.427 26.0528C108.119 26.1155 107.521 26.2529 107.36 26.2673C107.159 26.2914 106.979 26.2987 106.815 26.2987C106.432 26.2987 106.128 26.2577 105.88 26.1709C105.629 26.0914 105.431 25.9443 105.277 25.725C105.116 25.5081 105.005 25.2019 104.935 24.8091C104.86 24.4186 104.824 23.9004 104.824 23.2616V8.91765C104.783 7.75104 103.824 6.81824 102.647 6.81824H102.638C101.912 6.81824 101.187 6.87609 100.442 6.99902V24.2233C100.442 26.2022 100.926 27.6412 101.888 28.5138C102.85 29.3959 104.13 29.8322 105.728 29.8322C106.123 29.8322 106.55 29.8105 107.017 29.7671C107.456 29.7286 109.984 29.2899 110.592 29.1477C111.414 29.6008 112.392 29.8322 113.537 29.8322C113.93 29.8322 114.362 29.8105 114.827 29.7671C115.017 29.7551 115.617 29.6563 116.28 29.543V36.9837C116.676 37.0464 117.052 37.0874 117.411 37.1115C117.777 37.1307 118.131 37.138 118.481 37.138H118.534C119.65 37.1283 120.566 36.2944 120.694 35.2145V29.8587C120.915 29.8997 121.202 29.9407 121.547 29.972C121.887 30.0058 122.231 30.0154 122.586 30.0154C123.952 30.0154 125.174 29.8178 126.254 29.4128C127.329 29.0127 128.236 28.439 128.983 27.6942C129.728 26.9567 130.299 26.0504 130.694 24.9802C131.087 23.9221 131.285 22.7217 131.285 21.3767C131.285 20.0318 131.126 18.7952 130.805 17.7829C130.477 16.773 130.031 15.9318 129.453 15.2593M125.562 25.2477C124.878 26.0721 123.89 26.4842 122.61 26.4842C121.887 26.4842 121.246 26.4071 120.686 26.236V20.7814C120.686 20.2704 120.732 19.7859 120.841 19.3279C120.939 18.8748 121.103 18.4819 121.337 18.1348C121.564 17.7998 121.855 17.5274 122.222 17.3322C122.586 17.1345 123.024 17.0381 123.543 17.0381C124.104 17.0381 124.569 17.1514 124.96 17.3756C125.341 17.6069 125.659 17.9107 125.905 18.3059C126.158 18.6988 126.329 19.1664 126.43 19.7112C126.539 20.2656 126.589 20.8561 126.589 21.4972C126.589 23.1676 126.249 24.4186 125.562 25.2453M152.72 14.6904C151.503 13.654 149.818 13.1358 147.668 13.1358C146.884 13.1358 146.026 13.2129 145.118 13.3575C144.727 13.4178 144.341 13.4997 143.949 13.5913C143.852 13.613 143.756 13.6371 143.667 13.6588C143.242 13.7673 142.813 13.895 142.387 14.0348C142.387 14.5868 142.437 15.0664 142.541 15.4883C142.563 15.5702 142.577 15.657 142.599 15.7365C142.628 15.8064 142.649 15.8739 142.669 15.9414C142.936 16.5199 143.522 16.9296 144.202 16.9296H144.216C144.305 16.9296 144.385 16.9248 144.472 16.9055C144.558 16.8863 144.643 16.867 144.73 16.8453C145.457 16.691 146.156 16.6091 146.827 16.6091C147.347 16.6091 147.82 16.6356 148.249 16.7007C148.668 16.7657 149.025 16.8814 149.319 17.0598C149.61 17.2333 149.835 17.4768 150.001 17.7853C150.167 18.0938 150.247 18.4964 150.247 18.9929V19.3689C149.524 19.3062 148.861 19.2749 148.266 19.2749C147.432 19.2749 146.605 19.3641 145.776 19.5376C144.944 19.7136 144.194 19.998 143.524 20.4054C142.847 20.8055 142.302 21.3454 141.873 22.0155C141.454 22.688 141.242 23.5195 141.242 24.5102C141.242 25.0139 141.283 25.484 141.374 25.9082V25.8961C141.184 25.9419 139.931 26.1323 139.738 26.1492C139.54 26.1661 139.357 26.1781 139.193 26.1781C138.824 26.1781 138.508 26.1372 138.258 26.06C138.012 25.9733 137.812 25.8238 137.658 25.6045C137.498 25.39 137.39 25.0838 137.315 24.691C137.241 24.3005 137.204 23.7847 137.204 23.1411V8.79713C137.168 7.63053 136.202 6.69531 135.021 6.69531H135.011C134.293 6.69531 133.567 6.75798 132.82 6.87609V24.1004C132.82 26.0841 133.302 27.5111 134.269 28.3957C135.23 29.273 136.51 29.7117 138.108 29.7117C138.499 29.7117 138.935 29.6924 139.398 29.6514C139.779 29.6177 142.43 29.1404 143.575 28.9115C144.127 29.2296 144.758 29.4658 145.477 29.6201C146.361 29.8057 147.323 29.8997 148.386 29.8997C149.688 29.8997 151.667 29.6249 152.823 29.3887C153.886 29.1549 154.54 28.3016 154.54 27.2628V19.6461C154.54 17.378 153.935 15.7245 152.725 14.6953M150.242 26.277C150.015 26.3155 149.75 26.3637 149.442 26.4119C149.131 26.4674 148.815 26.4867 148.509 26.4867C148.237 26.4867 147.918 26.477 147.554 26.4385C147.188 26.4119 146.851 26.33 146.535 26.1998C146.209 26.0624 145.932 25.8503 145.708 25.5611C145.482 25.2743 145.368 24.8573 145.368 24.3246C145.368 23.5171 145.66 22.9338 146.253 22.5723C146.843 22.2083 147.646 22.0275 148.663 22.0275C148.892 22.0275 149.155 22.0516 149.444 22.0781C149.726 22.1119 149.999 22.1456 150.244 22.1866V26.277H150.242ZM180.959 14.6904C179.749 13.654 178.057 13.1358 175.907 13.1358C175.122 13.1358 174.268 13.2129 173.36 13.3575C172.972 13.4202 172.579 13.4997 172.188 13.5913C172.099 13.6106 172 13.6371 171.904 13.6588C171.482 13.7673 171.055 13.895 170.626 14.0348C170.626 14.5868 170.677 15.0664 170.776 15.4883C170.797 15.5702 170.817 15.657 170.843 15.7365C170.858 15.8064 170.889 15.8739 170.913 15.9414C171.173 16.5199 171.757 16.9296 172.436 16.9296H172.456C172.543 16.9296 172.629 16.9248 172.699 16.9055C172.796 16.8863 172.878 16.867 172.969 16.8429C173.695 16.6886 174.394 16.6067 175.071 16.6067C175.587 16.6067 176.059 16.6332 176.486 16.6982C176.908 16.7633 177.264 16.879 177.558 17.055C177.843 17.2285 178.074 17.472 178.243 17.7805C178.407 18.089 178.484 18.4915 178.484 18.9881V19.3641C177.761 19.3014 177.098 19.2701 176.5 19.2701C175.669 19.2701 174.842 19.3593 174.013 19.5328C173.181 19.7088 172.432 19.9932 171.757 20.4005C171.089 20.8007 170.537 21.3406 170.113 22.0106C169.686 22.6831 169.469 23.5147 169.469 24.5054C169.469 25.496 169.645 26.3372 169.988 27.0121C170.327 27.6942 170.814 28.2462 171.448 28.6801C172.087 29.1188 172.837 29.4297 173.721 29.6153C174.601 29.8009 175.57 29.8949 176.626 29.8949C177.932 29.8949 179.906 29.6201 181.058 29.3815C182.128 29.1477 182.782 28.2944 182.782 27.2556V19.6389C182.782 17.3707 182.179 15.7172 180.959 14.688M178.486 26.277C178.257 26.3155 177.997 26.3637 177.681 26.4119C177.373 26.4674 177.062 26.4867 176.746 26.4867C176.476 26.4867 176.16 26.477 175.799 26.4409C175.435 26.4143 175.102 26.3324 174.777 26.2022C174.456 26.0648 174.179 25.8527 173.953 25.5635C173.728 25.2767 173.613 24.8597 173.613 24.327C173.613 23.5195 173.909 22.9362 174.502 22.5747C175.088 22.2107 175.893 22.0299 176.91 22.0299C177.137 22.0299 177.397 22.054 177.686 22.0805C177.975 22.1143 178.248 22.148 178.491 22.189V26.2794L178.486 26.277ZM96.6359 14.8061C95.4187 13.7769 93.7363 13.2587 91.5862 13.2587C90.8005 13.2587 89.9472 13.3358 89.0337 13.4708C88.6456 13.5335 88.2551 13.6106 87.8623 13.7094C87.7658 13.7335 87.6718 13.7528 87.5778 13.7817C87.1512 13.8878 86.7246 14.0155 86.2979 14.1553C86.2979 14.7025 86.3534 15.1821 86.4474 15.6088C86.4739 15.6931 86.4956 15.7775 86.5149 15.8594C86.5366 15.9293 86.5631 15.992 86.5848 16.0619C86.8523 16.6404 87.4332 17.0477 88.1178 17.0477H88.1346C88.219 17.0477 88.3009 17.0405 88.3805 17.0236C88.4697 17.0044 88.5492 16.9851 88.6408 16.9658C89.3759 16.8115 90.0653 16.7272 90.745 16.7272C91.2608 16.7272 91.7333 16.7585 92.1551 16.8212C92.5841 16.8814 92.9409 17.0044 93.2325 17.1827C93.5217 17.3563 93.7507 17.5973 93.9146 17.9082C94.0809 18.2168 94.1653 18.6145 94.1653 19.1086V19.4846C93.4374 19.4243 92.7769 19.3906 92.1744 19.3906C91.3428 19.3906 90.5112 19.4798 89.6869 19.6557C88.8529 19.8341 88.1033 20.1161 87.4308 20.5211C86.7607 20.926 86.2112 21.4635 85.7869 22.136C85.3627 22.8061 85.1482 23.6352 85.1482 24.6283C85.1482 25.6213 85.3145 26.4577 85.6616 27.1326C86.0015 27.8172 86.4859 28.3788 87.1199 28.8078C87.7538 29.2417 88.5106 29.5574 89.388 29.743C90.2678 29.9238 91.2367 30.0154 92.2949 30.0154C93.5989 30.0154 95.5754 29.743 96.7347 29.5068C97.8001 29.273 98.4557 28.4198 98.4557 27.3761V19.7618C98.4557 17.4937 97.8411 15.8402 96.6335 14.8085M94.1653 26.3878C93.9315 26.4336 93.664 26.4746 93.3554 26.5325C93.0469 26.5855 92.7312 26.6072 92.4202 26.6072C92.1575 26.6072 91.8369 26.5903 91.4754 26.559C91.1042 26.5349 90.7643 26.4553 90.4485 26.3179C90.128 26.1854 89.8508 25.9684 89.6194 25.6792C89.3928 25.39 89.2844 24.9802 89.2844 24.4427C89.2844 23.6376 89.5784 23.0519 90.1714 22.688C90.7571 22.3288 91.5621 22.1504 92.5793 22.1504C92.8107 22.1504 93.0662 22.1697 93.3554 22.1962C93.6471 22.2276 93.9146 22.2661 94.1653 22.3047V26.3902V26.3878ZM82.2895 14.8061C83.1476 15.8088 83.5839 17.3756 83.5839 19.5015V27.6967C83.5839 28.8946 82.6101 29.8684 81.4146 29.878H81.3784C80.6529 29.878 79.9178 29.8129 79.1681 29.69V20.644C79.1681 19.5328 79.0332 18.6747 78.7463 18.0746C78.4691 17.4768 77.9027 17.1803 77.0591 17.1803C76.7048 17.1803 76.3529 17.2285 76.013 17.3322C75.6731 17.4406 75.367 17.6262 75.085 17.901C74.803 18.1878 74.5716 18.5759 74.4005 19.0845C74.2221 19.5858 74.1329 20.2439 74.1329 21.0562V27.675C74.1329 28.8825 73.1495 29.8684 71.9395 29.878H71.913C71.1923 29.878 70.4644 29.8129 69.722 29.69V27.7931C69.722 27.7473 69.7148 27.7159 69.7148 27.675C69.7148 27.6412 69.722 27.6026 69.722 27.5617V20.6416C69.722 19.5304 69.5846 18.6723 69.305 18.0721C69.023 17.4744 68.459 17.1803 67.6105 17.1803C67.2586 17.1803 66.9091 17.2285 66.5524 17.3322C66.1981 17.4406 65.8823 17.6359 65.6051 17.9348C65.3279 18.2385 65.1062 18.6554 64.935 19.1954C64.776 19.7305 64.6892 20.4222 64.6892 21.2924V27.6798L64.6844 27.687C64.6844 27.728 64.6795 27.7617 64.6795 27.8027C64.6747 27.8389 64.6747 27.8702 64.6747 27.9064C64.6699 27.9473 64.6603 27.9907 64.6579 28.0293C64.6482 28.0582 64.6482 28.0919 64.6434 28.1209C64.6337 28.1594 64.6217 28.1956 64.6096 28.2269C64.6096 28.2631 64.5928 28.2968 64.5831 28.333C64.5783 28.3667 64.5638 28.3908 64.5566 28.4173C64.5422 28.4559 64.5301 28.4993 64.5108 28.5306C64.5012 28.5523 64.4891 28.5716 64.4771 28.5957C64.4578 28.6367 64.4433 28.6825 64.4168 28.7307C64.4168 28.7307 64.4072 28.7379 64.4072 28.7427C64.0288 29.42 63.3105 29.878 62.4837 29.878H62.4765C61.7534 29.878 61.0158 29.8129 60.2734 29.69V13.6757C60.5651 13.6106 60.8519 13.5648 61.146 13.5359C61.4304 13.5021 61.7534 13.4877 62.1077 13.4877C62.462 13.4877 62.7706 13.5021 63.0381 13.5359C63.3081 13.5648 63.5877 13.6106 63.8745 13.6757C63.9323 13.7817 63.995 13.9263 64.0456 14.124C64.0938 14.3216 64.1445 14.5265 64.1854 14.741C64.2312 14.958 64.2674 15.1725 64.2915 15.3798C64.3325 15.5823 64.3493 15.7606 64.3686 15.9052C64.5373 15.5919 64.7494 15.2882 65.029 14.9773C65.2966 14.6639 65.6148 14.394 65.9884 14.1409C66.3596 13.8974 66.7765 13.6901 67.2442 13.5359C67.7094 13.3792 68.2372 13.3069 68.8133 13.3069C71.3273 13.3069 72.9302 14.2542 73.6316 16.1535C74.0462 15.3894 74.6319 14.7266 75.3935 14.1553C76.1432 13.5889 77.1049 13.3045 78.2618 13.3045C80.0889 13.3045 81.4315 13.7986 82.2871 14.8037M169.503 29.5237H156.738V29.5165C156.738 29.5165 154.961 29.6273 155.832 27.9425L162.359 16.8863H159.182C155.836 16.8766 156.203 13.5142 156.203 13.5142H167.363C167.363 13.5142 167.411 13.5045 167.49 13.5142C167.891 13.5262 169.028 13.6877 168.24 15.1436L168.259 15.1363L161.643 26.1468H167.052C169.421 26.1468 169.544 28.6029 169.505 29.5213M169.477 29.8394C169.477 29.8563 169.472 29.8732 169.472 29.8732C169.472 29.8732 169.436 29.8539 169.477 29.8394Z" fill="black"/>
<path d="M188.283 17.0364C187.806 17.5137 187.23 17.7523 186.552 17.7523C185.875 17.7523 185.304 17.5137 184.834 17.0364C184.356 16.5592 184.125 15.9879 184.125 15.3106C184.125 14.6333 184.359 14.0717 184.834 13.5969C185.306 13.1244 185.882 12.8906 186.552 12.8906C187.222 12.8906 187.806 13.1244 188.283 13.5969C188.755 14.0717 188.996 14.6405 188.996 15.3106C188.996 15.9807 188.755 16.5592 188.283 17.0364ZM185.067 13.8355C184.658 14.2428 184.46 14.737 184.46 15.313C184.46 15.8891 184.66 16.3929 185.063 16.8026C185.477 17.21 185.964 17.4197 186.55 17.4197C187.136 17.4197 187.63 17.21 188.039 16.8026C188.444 16.3929 188.649 15.8963 188.649 15.313C188.649 14.7297 188.444 14.2428 188.039 13.8355C187.625 13.4281 187.131 13.2233 186.55 13.2233C185.969 13.2233 185.477 13.4281 185.067 13.8355ZM186.509 13.9705C186.839 13.9705 187.09 14.0018 187.246 14.0669C187.526 14.1826 187.663 14.4067 187.663 14.7418C187.663 14.978 187.577 15.1539 187.398 15.2672C187.311 15.3251 187.181 15.3709 187.013 15.3998C187.227 15.4311 187.374 15.5179 187.473 15.6601C187.567 15.8023 187.613 15.9373 187.613 16.0747V16.2723C187.613 16.3326 187.615 16.4001 187.622 16.4724C187.627 16.5399 187.634 16.5881 187.644 16.6098L187.661 16.6459H187.22C187.22 16.6459 187.215 16.6243 187.215 16.6194C187.215 16.6122 187.208 16.6001 187.208 16.5929L187.201 16.5037V16.2916C187.201 15.9855 187.111 15.7806 186.945 15.6794C186.839 15.6264 186.67 15.5974 186.417 15.5974H186.041V16.6484H185.569V13.9801H186.511L186.509 13.9705ZM187.029 14.3995C186.904 14.3344 186.711 14.3031 186.449 14.3031H186.039V15.2528H186.465C186.67 15.2528 186.822 15.2335 186.928 15.1973C187.111 15.125 187.208 14.9852 187.208 14.7827C187.208 14.5923 187.148 14.467 187.027 14.3971" fill="black"/>
<path d="M35.9254 10.5366C30.7287 7.88036 21.5838 9.74356 18.3636 16.4323C16.6836 19.9225 17.7514 28.2502 22.4082 31.9742C26.3491 35.1221 34.6937 31.3137 38.7407 23.0583C41.3197 17.7965 40.1772 12.7059 35.9254 10.5366ZM33.7464 22.14C31.7193 26.2689 27.5494 28.1707 25.5778 26.5991C23.6688 25.0734 22.2949 21.4434 23.5555 18.8282C25.1656 15.485 29.738 14.5522 32.3388 15.8803C34.4647 16.965 35.036 19.5079 33.7464 22.14ZM26.607 36.4863C26.6215 36.7129 26.5226 36.9202 26.3636 37.0504C26.3202 37.0841 25.7489 37.5132 24.8378 37.8241C24.0617 38.0892 23.0373 38.3327 21.6007 38.4411C16.0666 38.8533 12.2365 33.9892 12.0172 30.7329C12.0172 30.6943 12.01 30.5834 12.0051 30.5641C11.9931 30.3737 12.0027 30.1857 12.0292 30.0025C12.1931 28.8624 13.085 27.9537 14.2202 27.8694C15.141 27.7995 15.9774 28.296 16.4281 29.0769H16.4329C16.4691 29.1468 16.5077 29.2143 16.5438 29.2818C16.6571 29.4939 16.7656 29.7157 16.874 29.9447C17.1729 30.5834 17.4694 31.2631 17.8671 31.897C19.8388 35.057 22.4684 35.8018 24.8282 35.9368C25.2379 35.9609 25.5248 35.9199 25.826 35.8934C25.867 35.891 25.9803 35.8838 25.9948 35.8838C26.3154 35.8838 26.5853 36.1441 26.607 36.4839M39.1167 35.1173C37.967 35.7488 36.9859 35.8163 36.5665 35.1872C36.4991 35.0835 36.4557 34.9678 36.4316 34.8473C36.4316 34.8401 36.4316 34.8353 36.4267 34.8304C36.4219 34.8087 36.4171 34.7846 36.4171 34.7629C36.4123 34.7268 36.4099 34.6882 36.4075 34.6497C36.4075 34.6424 36.4075 34.6328 36.4075 34.6231C36.4026 34.2978 36.5232 33.9193 36.7136 33.5505C38.3382 30.4243 43.342 24.1598 43.342 18.5461C43.342 13.3012 42.0139 10.1509 40.8859 8.12381C40.6569 7.71646 40.3411 7.2127 40.1459 6.71376C40.1459 6.70652 40.1411 6.7017 40.1387 6.69447C40.0832 6.54985 40.0519 6.39318 40.0519 6.22928C40.0519 5.55197 40.5725 5 41.2161 5C41.3342 5 41.4451 5.01928 41.5511 5.05303C41.5608 5.05544 41.5704 5.06026 41.5801 5.06267C42.1561 5.26273 42.8431 5.67249 43.5373 6.22205C46.6321 8.67578 50.5104 14.1858 50.5104 18.5486C50.5104 26.0688 42.4213 33.5264 39.1215 35.1173" fill="#E9004B"/>
</svg>
